<?xml version="1.0" encoding="UTF-8" standalone="no"?>
<svg width="22px" height="25px" viewBox="0 0 22 25" version="1.1" xmlns="http://www.w3.org/2000/svg" xmlns:xlink="http://www.w3.org/1999/xlink">
    <!-- Generator: Sketch 3.6.1 (26313) - http://www.bohemiancoding.com/sketch -->
    <title>Path 1</title>
    <desc>Created with Sketch.</desc>
    <defs></defs>
    <g id="Landing" stroke="none" stroke-width="1" fill="none" fill-rule="evenodd">
        <g id="Landing---Uus" transform="translate(-555.000000, -3826.000000)" fill="#FFFFFF">
            <g id="Group-2">
                <g id="download" transform="translate(0.000000, 3558.000000)">
                    <g id="Group-5" transform="translate(470.000000, 98.000000)">
                        <g id="Apple-App-Store---Large" transform="translate(49.000000, 159.000000)">
                            <path d="M51.2134822,15.114604 C49.8419509,17.3047578 47.079026,17.2370499 47.079026,17.2370499 C47.079026,17.2370499 46.6173888,14.9886761 48.3748723,12.9904332 C50.1323558,10.9921904 52.2670108,10.9921904 52.2670108,10.9921904 C52.2670108,10.9921904 52.5850135,12.9244502 51.2134822,15.114604 Z M54.5184852,17.2816446 C56.2301536,17.9619086 57.2607952,19.435637 57.2607952,19.435637 C57.2607952,19.435637 54.4025326,20.8462905 54.5184859,24.3479847 C54.6344391,27.8496789 58.0416691,29.3419149 58.0416691,29.3419149 C58.0416691,29.3419149 56.7356099,32.1848149 55.438066,33.8426167 C54.7329577,34.7434955 53.2250393,35.9699111 52.1322104,35.9699111 C51.4235975,35.9699111 50.7600935,35.5706614 50.0102916,35.2835199 C49.3416264,35.0274502 49.1411047,34.8575183 48.1928474,34.8082753 C47.4295917,34.7686395 46.3788161,35.0712517 45.8139037,35.3702636 C45.2071942,35.691399 43.9990054,36.2454472 42.8022397,35.7797682 C41.4409277,35.2500619 40.2159889,33.8242451 39.2189126,32.1105558 C37.3452801,28.8903166 36.9929707,26.2260318 36.9578305,24.6055782 C36.9450208,24.0148754 36.8985071,21.9923663 38.1908787,19.8953313 C39.4832502,17.7982963 41.3164422,17.2816446 41.3164422,17.2816446 C41.3164422,17.2816446 43.0157571,16.5454329 45.2573664,17.2816446 C46.5447483,17.7044595 47.2021351,18.1321985 48.0395498,18.0559804 C48.8769644,17.9797624 49.2863589,17.6290371 50.4416988,17.2816447 C51.5664637,16.9434456 53.3071075,16.8002099 54.5184852,17.2816446 Z" id="Path-1"></path>
                        </g>
                    </g>
                </g>
            </g>
        </g>
    </g>
</svg>