<?xml version="1.0" encoding="UTF-8" standalone="no"?>
<svg viewBox="0 0 52 52" version="1.1" xmlns="http://www.w3.org/2000/svg" xmlns:xlink="http://www.w3.org/1999/xlink" xmlns:sketch="http://www.bohemiancoding.com/sketch/ns">
    <!-- Generator: Sketch 3.3.3 (12081) - http://www.bohemiancoding.com/sketch -->
    <title>Oval 5 + Shape</title>
    <desc>Created with Sketch.</desc>
    <defs></defs>
    <g id="Landing" stroke="none" stroke-width="1" fill="none" fill-rule="evenodd" sketch:type="MSPage">
        <g id="Landing-w-screenshot" sketch:type="MSArtboardGroup" transform="translate(-312.000000, -1076.000000)">
            <g id="features" sketch:type="MSLayerGroup" transform="translate(0.000000, 743.000000)">
                <g id="icons" transform="translate(312.000000, 324.000000)" sketch:type="MSShapeGroup">
                    <g id="1" transform="translate(0.000000, 4.000000)">
                        <g id="Oval-5-+-Shape" transform="translate(0.000000, 5.000000)">
                            <circle id="Oval-5-Copy" fill="#353B46" cx="26" cy="26" r="26"></circle>
                            <path d="M19.5,17.2826087 C19.5,16.5262187 20.1049792,15.9130435 20.8712021,15.9130435 L37.6287979,15.9130435 C38.3860919,15.9130435 39,16.5209453 39,17.2826087 C39,18.0389987 38.3950208,18.6521739 37.6287979,18.6521739 L20.8712021,18.6521739 C20.1139081,18.6521739 19.5,18.0442721 19.5,17.2826087 Z M15.3143254,19.5652174 C16.5924919,19.5652174 17.6286507,18.5432587 17.6286507,17.2826087 C17.6286507,16.0219587 16.5924919,15 15.3143254,15 C14.0361588,15 13,16.0219587 13,17.2826087 C13,18.5432587 14.0361588,19.5652174 15.3143254,19.5652174 Z M19.5,25.5 C19.5,24.74361 20.1049792,24.1304348 20.8712021,24.1304348 L37.6287979,24.1304348 C38.3860919,24.1304348 39,24.7383366 39,25.5 C39,26.25639 38.3950208,26.8695652 37.6287979,26.8695652 L20.8712021,26.8695652 C20.1139081,26.8695652 19.5,26.2616634 19.5,25.5 Z M15.3143254,27.7826087 C16.5924919,27.7826087 17.6286507,26.76065 17.6286507,25.5 C17.6286507,24.23935 16.5924919,23.2173913 15.3143254,23.2173913 C14.0361588,23.2173913 13,24.23935 13,25.5 C13,26.76065 14.0361588,27.7826087 15.3143254,27.7826087 Z M19.5,33.7173913 C19.5,32.9610013 20.1049792,32.3478261 20.8712021,32.3478261 L37.6287979,32.3478261 C38.3860919,32.3478261 39,32.9557279 39,33.7173913 C39,34.4737813 38.3950208,35.0869565 37.6287979,35.0869565 L20.8712021,35.0869565 C20.1139081,35.0869565 19.5,34.4790547 19.5,33.7173913 Z M15.3143254,36 C16.5924919,36 17.6286507,34.9780413 17.6286507,33.7173913 C17.6286507,32.4567413 16.5924919,31.4347826 15.3143254,31.4347826 C14.0361588,31.4347826 13,32.4567413 13,33.7173913 C13,34.9780413 14.0361588,36 15.3143254,36 Z" id="Rectangle-24" fill="#FFFFFF"></path>
                        </g>
                    </g>
                </g>
            </g>
        </g>
    </g>
</svg>
