<?xml version="1.0" encoding="UTF-8" standalone="no"?>
<svg viewBox="0 0 52 52" version="1.1" xmlns="http://www.w3.org/2000/svg" xmlns:xlink="http://www.w3.org/1999/xlink" xmlns:sketch="http://www.bohemiancoding.com/sketch/ns">
    <!-- Generator: Sketch 3.3.3 (12081) - http://www.bohemiancoding.com/sketch -->
    <title>Oval 5 + Shape</title>
    <desc>Created with Sketch.</desc>
    <defs></defs>
    <g id="Landing" stroke="none" stroke-width="1" fill="none" fill-rule="evenodd" sketch:type="MSPage">
        <g id="Landing-w-screenshot" sketch:type="MSArtboardGroup" transform="translate(-312.000000, -1222.000000)">
            <g id="features" sketch:type="MSLayerGroup" transform="translate(0.000000, 743.000000)">
                <g id="icons" transform="translate(312.000000, 324.000000)" sketch:type="MSShapeGroup">
                    <g id="2" transform="translate(0.000000, 150.000000)">
                        <g id="Oval-5-+-Shape" transform="translate(0.000000, 5.000000)">
                            <circle id="Oval-5" fill="#353B46" cx="26" cy="26" r="26"></circle>
                            <path d="M33.2857143,37 L20.7142857,37 C18.1151429,37 16,34.8848571 16,32.2857143 L16,19.7142857 C16,17.1151429 18.1151429,15 20.7142857,15 L28.5714286,15 C29.4404286,15 30.1428571,15.704 30.1428571,16.5714286 C30.1428571,17.4388571 29.4404286,18.1428571 28.5714286,18.1428571 L20.7142857,18.1428571 C19.8468571,18.1428571 19.1428571,18.8484286 19.1428571,19.7142857 L19.1428571,32.2857143 C19.1428571,33.1515714 19.8468571,33.8571429 20.7142857,33.8571429 L33.2857143,33.8571429 C34.1531429,33.8571429 34.8571429,33.1515714 34.8571429,32.2857143 L34.8571429,27.5714286 C34.8571429,26.704 35.5595714,26 36.4285714,26 C37.2975714,26 38,26.704 38,27.5714286 L38,32.2857143 C38,34.8848571 35.8848571,37 33.2857143,37 Z M28.8322857,30.4518571 C28.2822857,30.4518571 27.7495714,30.2334286 27.3535714,29.8374286 L23.161,25.6464286 C22.3438571,24.8277143 22.3438571,23.5014286 23.161,22.6842857 C23.9797143,21.8655714 25.306,21.8655714 26.1262857,22.6842857 L28.3514286,24.911 L33.8121429,16.3388571 C34.3731429,15.3268571 35.6507143,14.9607143 36.6627143,15.5232857 C37.6731429,16.0858571 38.0377143,17.3618571 37.4767143,18.3722857 L30.6661429,29.3722857 C30.3471429,29.9474286 29.7767143,30.3387143 29.1261429,30.4298571 C29.0255714,30.4455714 28.9312857,30.4518571 28.8322857,30.4518571 Z" id="Shape" fill="#FFFFFF"></path>
                        </g>
                    </g>
                </g>
            </g>
        </g>
    </g>
</svg>
