<?xml version="1.0" encoding="UTF-8" standalone="no"?>
<svg viewBox="0 0 52 52" version="1.1" xmlns="http://www.w3.org/2000/svg" xmlns:xlink="http://www.w3.org/1999/xlink" xmlns:sketch="http://www.bohemiancoding.com/sketch/ns">
    <!-- Generator: Sketch 3.3.3 (12081) - http://www.bohemiancoding.com/sketch -->
    <title>Oval 5 + Shape + Shape</title>
    <desc>Created with Sketch.</desc>
    <defs></defs>
    <g id="Landing" stroke="none" stroke-width="1" fill="none" fill-rule="evenodd" sketch:type="MSPage">
        <g id="Landing-w-screenshot" sketch:type="MSArtboardGroup" transform="translate(-719.000000, -1171.000000)">
            <g id="features" sketch:type="MSLayerGroup" transform="translate(0.000000, 740.000000)">
                <g id="icons" transform="translate(281.000000, 280.000000)" sketch:type="MSShapeGroup">
                    <g id="6" transform="translate(438.000000, 146.000000)">
                        <g id="Oval-5-+-Shape-+-Shape" transform="translate(0.000000, 5.000000)">
                            <g id="Oval-5-+-Shape" fill="#353B46">
                                <circle id="Oval-5" cx="26" cy="26" r="26"></circle>
                            </g>
                            <path d="M18.9005452,14.0794122 L18.9005452,12.2582122 C17.6529587,12.4740551 16.6937933,13.4949735 16.561677,14.7630429 L18.3666718,14.6394673 C18.4687752,14.3923163 18.6618088,14.1987857 18.9005452,14.0794122 Z M30.1752403,12.2087347 L24.2956796,12.2087347 C24.295739,10.9910306 23.3010336,10 22.0776951,10 C20.8544755,10 19.8597106,10.9910306 19.8597106,12.2087347 L19.8597106,19.7304469 C19.8597106,20.948151 20.8544755,21.9392408 22.0776951,21.9392408 C23.3010336,21.9392408 24.2956796,20.948151 24.2956796,19.7304469 L24.2956796,16.6859796 C24.2956796,16.1585347 23.8666434,15.7308143 23.3365142,15.7308143 C22.806385,15.7308143 22.3773488,16.1585347 22.3773488,16.6859796 L22.3773488,19.7304469 C22.3773488,19.8950959 22.2425581,20.0289694 22.0776357,20.0289694 C21.912832,20.0289694 21.7779225,19.8950959 21.7779225,19.7304469 L21.7779225,12.2087347 C21.7779225,12.0440857 21.912832,11.9102714 22.0776357,11.9102714 C22.2425581,11.9102714 22.3773488,12.0440857 22.3773488,12.2087347 L22.0776357,12.2087347 L22.0776357,13.9478469 L29.5203643,13.9431714 L29.5203643,17.6718612 C29.5203643,18.7617878 30.4092817,19.6465245 31.5024057,19.6465245 L35.1721835,19.6362857 L35.212478,36.1063327 C35.212478,36.7144449 34.7178889,37.2083918 34.1062791,37.2083918 L19.3896072,37.2083918 C18.7788295,37.2083918 18.2824574,36.7144449 18.2824574,36.1063327 L18.2824574,28.4171898 L16.5317829,28.5370367 L16.5317829,36.1063918 C16.5317829,37.6752918 17.8131266,38.9527122 19.3896072,38.9527122 L34.1063385,38.9527122 C35.6817494,38.9527122 36.9651137,37.6752918 36.9651137,36.1063918 L36.9651137,18.9454939 L30.1752403,12.2087347 Z M28.0310698,26.0255776 L27.3220517,15.7504041 C27.3080258,15.5479959 27.2144212,15.3590816 27.0607313,15.2257408 C26.9201757,15.1044735 26.7412868,15.0377735 26.5567519,15.0377735 C26.5389819,15.0377735 26.5212119,15.0382469 26.5034419,15.0396673 L24.5026202,15.1766776 C24.9578656,15.5259796 25.2547855,16.0694041 25.2547855,16.6859204 L25.2547855,19.7303878 C25.2547855,21.4751224 23.829261,22.8942878 22.0776357,22.8942878 C20.3260103,22.8942878 18.9004858,21.4751224 18.9004858,19.7303878 L18.9004858,15.5601286 L14.7623282,15.8437367 C14.3388786,15.8730327 14.019553,16.2377816 14.0485556,16.6594061 L14.7567416,26.9345796 C14.7706486,27.1369878 14.8644315,27.3257837 15.0180026,27.4592429 C15.1584393,27.5805694 15.337447,27.6472102 15.522814,27.6472102 C15.5397519,27.6472102 15.557522,27.6467367 15.575292,27.6453163 L27.317416,26.8413061 C27.7407468,26.8120102 28.0601912,26.447202 28.0310698,26.0255776 Z" id="Shape" fill="#FFFFFF"></path>
                        </g>
                    </g>
                </g>
            </g>
        </g>
    </g>
</svg>
