<?xml version="1.0" encoding="UTF-8" standalone="no"?>
<svg width="64px" height="64px" viewBox="0 0 64 64" version="1.1" xmlns="http://www.w3.org/2000/svg" xmlns:xlink="http://www.w3.org/1999/xlink">
    <!-- Generator: Sketch 3.6.1 (26313) - http://www.bohemiancoding.com/sketch -->
    <title>api icon</title>
    <desc>Created with Sketch.</desc>
    <defs></defs>
    <g id="Landing" stroke="none" stroke-width="1" fill="none" fill-rule="evenodd">
        <g id="Landing---Uus" transform="translate(-600.000000, -2274.000000)">
            <g id="Group-2">
                <g id="API" transform="translate(0.000000, 2154.000000)">
                    <g id="api-icon" transform="translate(600.000000, 120.000000)">
                        <rect id="Rectangle-148-Copy-2" fill="#EEF1F5" x="23.2727273" y="23.2727273" width="40.7272727" height="40.7272727" rx="2.33057126"></rect>
                        <rect id="Rectangle-148-Copy" fill="#EEF1F5" x="0" y="0" width="40.7272727" height="40.7272727" rx="2.33057126"></rect>
                        <rect id="Rectangle-148" fill="#D5D9DF" x="8.72727273" y="8.72727273" width="46.5454545" height="46.5454545" rx="2.66351002"></rect>
                        <path d="M23.5605887,29.0155992 C23.6768053,29.4181468 23.8380855,29.8063177 24.0420574,30.1705274 L23.4609745,30.9109275 C23.2712331,31.1529353 23.292579,31.497976 23.5060381,31.7160227 L24.5069238,32.7271839 C24.7227546,32.9452305 25.0642891,32.9643754 25.3038376,32.7726861 L26.0319701,32.1904298 C26.4067093,32.4085004 26.8051662,32.5786007 27.2202254,32.6984065 L27.3293267,33.6448726 C27.3649032,33.9515755 27.6210541,34.1816027 27.9246403,34.1816027 L29.3405853,34.1816027 C29.6441715,34.1816027 29.9003223,33.9515515 29.9358988,33.6448726 L30.0402566,32.7319521 C30.4861488,32.6145424 30.9130669,32.4396259 31.3138956,32.2119948 L32.0183104,32.7750822 C32.2578589,32.9667716 32.5993934,32.9452065 32.8152242,32.729556 L33.8161099,31.7183948 C34.0319407,31.5003482 34.0509149,31.1553074 33.8611735,30.9132996 L33.3132953,30.2112375 C33.5409849,29.8134581 33.7188675,29.3893695 33.8374558,28.9460879 L34.6818049,28.8478471 C34.9854149,28.8119054 35.2130808,28.5531248 35.2130808,28.2464218 L35.2130808,26.8159402 C35.2130808,26.5092373 34.9853911,26.2504567 34.6818049,26.214515 L33.8493147,26.1162742 C33.7354461,25.6777848 33.5647026,25.2584644 33.3465238,24.8655013 L33.8588255,24.2113615 C34.0485668,23.9693537 34.0272209,23.6243129 33.8137619,23.4062663 L32.8152479,22.3975012 C32.5994171,22.1794546 32.2578826,22.1602857 32.0183341,22.351975 L31.3898158,22.8551595 C30.9818719,22.6131517 30.545443,22.4286507 30.0877157,22.3040527 L29.992845,21.4821847 C29.9572685,21.1754817 29.7011176,20.9454545 29.3975314,20.9454545 L27.9815864,20.9454545 C27.6780002,20.9454545 27.4218494,21.1754817 27.3862729,21.4821847 L27.2914022,22.3040527 C26.8217923,22.4310468 26.3735283,22.6227362 25.9560973,22.8743284 L25.3038613,22.351975 C25.0643128,22.1602857 24.7227783,22.1818507 24.5069475,22.3975012 L23.5060618,23.4086624 C23.290231,23.626709 23.2712568,23.9717498 23.4609982,24.2137576 L24.0065046,24.9110275 C23.7883021,25.3087829 23.6222784,25.7328955 23.5131771,26.173781 L22.6403668,26.2744179 C22.3367806,26.3103596 22.1090909,26.5691402 22.1090909,26.8758431 L22.1090909,28.3063248 C22.1090909,28.6130277 22.3367806,28.8718083 22.6403668,28.90775 L23.5605887,29.0155992 L23.5605887,29.0155992 Z M28.6907211,25.1458709 C29.9809624,25.1458709 31.0316553,26.2073506 31.0316553,27.510838 C31.0316553,28.8143254 29.9809624,29.8758051 28.6907211,29.8758051 C27.4005035,29.8758051 26.3497869,28.8143254 26.3497869,27.510838 C26.3497869,26.2073506 27.4004797,25.1458709 28.6907211,25.1458709 Z M42.6888672,29.3678284 L41.9417605,28.7304614 C41.7117228,28.5339798 41.3725364,28.5435643 41.1543576,28.7520264 L40.7416701,29.1425934 C40.393044,28.9724691 40.0230483,28.8526633 39.6411701,28.7831759 L39.5250009,28.2081079 C39.4657068,27.9109895 39.1929535,27.7049235 38.8940634,27.7288846 L37.9192671,27.8127487 C37.6204245,27.839106 37.3856195,28.085906 37.3761325,28.3902128 L37.357182,28.9748653 C36.9824191,29.1114439 36.6290258,29.298341 36.3064655,29.5331604 L35.8131616,29.2024963 C35.5617069,29.0347682 35.2273114,29.0826905 35.0328502,29.3151138 L34.4019601,30.0746828 C34.2074515,30.3071061 34.2169386,30.6497508 34.4232586,30.8701935 L34.854944,31.3350162 C34.7054989,31.6752647 34.5987694,32.03231 34.5371272,32.3988919 L33.9204677,32.5258861 C33.6263686,32.585789 33.4223966,32.8613424 33.4461143,33.1632771 L33.5291261,34.148081 C33.5552155,34.4499917 33.7995076,34.6872072 34.100722,34.6967917 L34.7671886,34.7183328 C34.8881961,35.0394124 35.0470808,35.3437432 35.2391702,35.6288571 L34.8668265,36.1967367 C34.7008028,36.4507251 34.7482381,36.7885776 34.9782758,36.9850591 L35.7253825,37.6224261 C35.9554676,37.8189077 36.2946066,37.8093232 36.5128329,37.6008611 L37.001417,37.1384106 C37.3216055,37.2893659 37.6583727,37.4019834 38.0046508,37.4690747 L38.1398652,38.1447796 C38.1991594,38.441898 38.4719126,38.647964 38.7707553,38.6240029 L39.7455516,38.5401388 C40.0443942,38.5137815 40.2791992,38.2670055 40.2886863,37.9626747 L40.3100322,37.3013225 C40.6657972,37.1743284 41.0025645,37.001808 41.313266,36.7885776 L41.8516808,37.147995 C42.1030881,37.3157232 42.4374836,37.2678009 42.6319922,37.0353776 L43.2628823,36.2806008 C43.4573435,36.0481775 43.4478564,35.7055328 43.2415364,35.4850901 L42.8074793,35.0202675 C42.9664114,34.6800189 43.0826517,34.3206014 43.1490137,33.9515755 L43.7419555,33.8293735 C44.0360547,33.7694706 44.2400266,33.4939172 44.216309,33.1919826 L44.1332971,32.2071786 C44.1072077,31.9052679 43.8629157,31.6680524 43.5617012,31.6584679 L42.9663877,31.639299 C42.8430321,31.289466 42.6770084,30.9588258 42.4706883,30.652099 L42.7955967,30.1584989 C42.9663877,29.9045585 42.9189523,29.5643099 42.6888672,29.3678284 Z M39.0150473,35.0609775 C37.9619827,35.1520539 37.0322025,34.3589153 36.9444708,33.2950635 C36.85432,32.2311877 37.6394223,31.2918861 38.6924395,31.2032297 C39.7455041,31.1121773 40.6752843,31.9053159 40.763016,32.9691677 C40.8531668,34.0330674 40.0680645,34.9723451 39.0150473,35.0609775 Z M26.9711899,37.7111064 C26.6723472,37.7422559 26.4422858,37.9962203 26.439914,38.3005511 L26.4327987,38.9067686 C26.4280552,39.2110754 26.6510013,39.469856 26.949844,39.5082178 L27.3909927,39.5657007 C27.4645175,39.8364858 27.5688752,40.0952664 27.7040659,40.3396703 L27.4194539,40.6942955 C27.2297125,40.9314871 27.2439431,41.2717596 27.4550304,41.4898063 L27.8748332,41.9235034 C28.0859205,42.14155 28.4227114,42.1655111 28.6622599,41.978614 L29.0156295,41.7030606 C29.264665,41.8516199 29.5279549,41.9690535 29.8030562,42.0504975 L29.8504915,42.5105519 C29.8813245,42.8124626 30.1327318,43.0448859 30.4339462,43.0472821 L31.034027,43.0544704 C31.3352178,43.0592626 31.5913923,42.8340277 31.6293406,42.532117 L31.6838912,42.0960238 C31.9827576,42.0217202 32.2673697,41.9091267 32.5377274,41.7605674 L32.8697748,42.0313286 C33.1045798,42.2230179 33.4413944,42.2086412 33.6572253,41.9953869 L34.0865151,41.5712742 C34.3023459,41.3580438 34.3260636,41.0177713 34.1410895,40.7757635 L33.8872629,40.4426793 C34.0437996,40.1791065 34.1647834,39.8987609 34.2477953,39.6040385 L34.6415086,39.5633045 C34.9403513,39.532155 35.170389,39.2781667 35.1727845,38.9738599 L35.1798761,38.3676184 C35.1846433,38.0633355 34.9616972,37.804531 34.6628545,37.7661931 L34.2786045,37.7158747 C34.2050797,37.4235485 34.0960022,37.1408067 33.9536961,36.8772339 L34.1932446,36.5801154 C34.382986,36.3428999 34.3687554,36.0026513 34.1576681,35.7846047 L33.7378891,35.3509076 C33.5268018,35.132837 33.1899634,35.1088758 32.9504386,35.2957969 L32.6634311,35.5186357 C32.3930734,35.3533037 32.103694,35.2263095 31.8001316,35.1400493 L31.7621596,34.763859 C31.7313266,34.4619244 31.479943,34.229525 31.1787048,34.2271289 L30.5786477,34.2199405 C30.2774333,34.2151483 30.0212825,34.4403833 29.9833105,34.742294 L29.9358751,35.1161121 C29.6228256,35.1975561 29.3216111,35.3221781 29.0417426,35.4850901 L28.7452717,35.2406862 C28.5104668,35.0489969 28.1736521,35.0633976 27.9578213,35.276628 L27.5261597,35.7031607 C27.3103289,35.9163911 27.2866112,36.2566636 27.471609,36.4986474 L27.7253881,36.8293355 C27.5783386,37.0929083 27.462122,37.37323 27.3862254,37.6679763 L26.9711899,37.7111064 Z M30.8442857,37.0257931 C31.7052372,37.0353776 32.3953977,37.7518404 32.3859343,38.6216307 C32.3764473,39.491421 31.6672652,40.188667 30.8063137,40.1791065 C29.9453622,40.169522 29.2552017,39.4530832 29.264665,38.5832689 C29.2741758,37.7135025 29.9833342,37.0162326 30.8442857,37.0257931 L30.8442857,37.0257931 Z" id="Shape" fill="#FFFFFF"></path>
                    </g>
                </g>
            </g>
        </g>
    </g>
</svg>