<?xml version="1.0" encoding="UTF-8" standalone="no"?>
<svg viewBox="0 0 52 52" version="1.1" xmlns="http://www.w3.org/2000/svg" xmlns:xlink="http://www.w3.org/1999/xlink" xmlns:sketch="http://www.bohemiancoding.com/sketch/ns">
    <!-- Generator: Sketch 3.3.3 (12081) - http://www.bohemiancoding.com/sketch -->
    <title>Oval 5 + Shape + XMLID_578_</title>
    <desc>Created with Sketch.</desc>
    <defs></defs>
    <g id="Landing" stroke="none" stroke-width="1" fill="none" fill-rule="evenodd" sketch:type="MSPage">
        <g id="Landing-w-screenshot" sketch:type="MSArtboardGroup" transform="translate(-282.000000, -1306.000000)">
            <g id="features" sketch:type="MSLayerGroup" transform="translate(0.000000, 740.000000)">
                <g id="icons" transform="translate(281.000000, 280.000000)" sketch:type="MSShapeGroup">
                    <g id="3" transform="translate(1.000000, 281.000000)">
                        <g id="Oval-5-+-Shape-+-XMLID_578_" transform="translate(0.000000, 5.000000)">
                            <g id="Oval-5-+-Shape" fill="#353B46">
                                <circle id="Oval-5" cx="26" cy="26" r="26"></circle>
                            </g>
                            <path d="M29.6340972,24.1249069 C29.849047,24.3373017 30.1972904,24.3371873 30.4121247,24.1246399 L33.0539499,21.5105443 L33.9005702,22.3476543 C34.0744414,22.5197055 34.3305855,22.5817462 34.5653039,22.5093718 C34.8000224,22.4363492 34.9745102,22.2412281 35.0180936,22.0017215 L35.9906087,16.6896018 C36.0250592,16.4998955 35.9635569,16.3059566 35.8253693,16.1704357 C35.6877213,16.0343048 35.4911142,15.9747046 35.3000178,16.0099385 L29.9588341,17.0002626 C29.7173719,17.0452583 29.5213815,17.2179577 29.4489351,17.4501049 C29.3764502,17.6817944 29.4396866,17.9346853 29.6129413,18.1060883 L30.4589065,18.9431983 L27.815771,21.5576372 C27.6007056,21.7703752 27.6007827,22.1154309 27.8159637,22.3280926 L29.6340972,24.1249069 Z M22.3657872,27.8752172 C22.1508374,27.6627843 21.802594,27.6628605 21.5877597,27.875446 L18.9460501,30.4895417 L18.0994683,29.6523935 C17.92552,29.4803041 17.6694145,29.4183016 17.4347346,29.4906379 C17.1999776,29.5636224 17.0255669,29.7587434 16.9818679,29.9982881 L16.0093528,35.310446 C15.9750179,35.500076 16.0364431,35.6940149 16.1746307,35.8295358 C16.3122787,35.9656667 16.5088858,36.0253432 16.6999437,35.990033 L22.0412045,34.9997089 C22.2827051,34.9547133 22.47858,34.7820138 22.551142,34.5498285 C22.6236268,34.3181771 22.5603519,34.0653244 22.3870587,33.8938832 L21.541132,33.0567732 L24.187042,30.4465288 C24.4026084,30.233829 24.4028011,29.8883919 24.1874274,29.6755396 L22.3657872,27.8752172 Z M16.9819064,22.0017215 C17.0254898,22.2412281 17.1999776,22.4363492 17.4346961,22.5093718 C17.6694145,22.5817462 17.9255586,22.5197055 18.0994298,22.3476543 L18.9460501,21.5105443 L21.5878753,24.1246399 C21.802671,24.3371873 22.1509144,24.3373017 22.3658643,24.1249069 L24.1840363,22.3281308 C24.3992173,22.1154691 24.3992944,21.7704133 24.1842675,21.5576753 L21.541132,18.9432365 L22.3870972,18.1061264 C22.5603519,17.9347234 22.6235883,17.6818325 22.5511034,17.450143 C22.4786185,17.2179959 22.2826281,17.0452964 22.0412045,17.0003007 L16.6999822,16.0099766 C16.5088858,15.9747427 16.3122787,16.0343048 16.1746307,16.1704739 C16.0364431,16.3059947 15.9749408,16.4999337 16.0093913,16.68964 L16.9819064,22.0017215 Z M35.0181321,29.9982881 C34.9744331,29.7587815 34.8000224,29.5636605 34.5652654,29.4906379 C34.3305855,29.4183397 34.07448,29.4803041 33.9005317,29.6523935 L33.0539499,30.4895035 L30.4122017,27.8754079 C30.197406,27.6628224 29.8491241,27.6627461 29.6341742,27.8751791 L27.8125726,29.6755396 C27.5971989,29.8883919 27.597353,30.233829 27.812958,30.4465288 L30.458868,33.0567732 L29.6129413,33.8938832 C29.4396481,34.0653244 29.3763732,34.3181771 29.448858,34.5498285 C29.52142,34.7820138 29.7173334,34.9547133 29.9587955,34.9997089 L35.3000178,35.990033 C35.4910757,36.0253432 35.6876828,35.9656667 35.8253308,35.8295358 C35.9635184,35.6939768 36.0249436,35.5000379 35.9906087,35.310446 L35.0181321,29.9982881 Z" id="XMLID_578_" fill="#FFFFFF" transform="translate(26.000000, 26.000000) rotate(-315.000000) translate(-26.000000, -26.000000) "></path>
                        </g>
                    </g>
                </g>
            </g>
        </g>
    </g>
</svg>
