<?xml version="1.0" encoding="UTF-8" standalone="no"?>
<svg width="32px" height="33px" viewBox="0 0 32 33" version="1.1" xmlns="http://www.w3.org/2000/svg" xmlns:xlink="http://www.w3.org/1999/xlink">
    <!-- Generator: Sketch 40.1 (33804) - http://www.bohemiancoding.com/sketch -->
    <title>Slice 1e-commerce</title>
    <desc>Created with Sketch.</desc>
    <defs></defs>
    <g id="Page-1" stroke="none" stroke-width="1" fill="none" fill-rule="evenodd">
        <g transform="translate(1.000000, 1.000000)">
            <polyline id="Fill-1" fill-opacity="0" fill="#000000" points="20 6 15 1 10 6"></polyline>
            <polyline id="Stroke-3" stroke="#808AA2" stroke-width="2" stroke-linecap="round" stroke-linejoin="round" points="20 6 15 1 10 6"></polyline>
            <polyline id="Fill-4" fill-opacity="0" fill="#000000" points="26 6 20.6666667 1 18 3.5"></polyline>
            <polyline id="Stroke-5" stroke="#808AA2" stroke-width="2" stroke-linecap="round" stroke-linejoin="round" points="26 6 20.6666667 1 18 3.5"></polyline>
            <path d="M11.1213221,24.8786798 C12.2928926,26.0502529 12.2928926,27.949747 11.1213221,29.12132 C9.94975156,30.2928933 8.05025369,30.2928933 6.87868015,29.12132 C5.70710662,27.949747 5.70710662,26.0502529 6.87868015,24.8786798 C8.05025369,23.7071067 9.94975156,23.7071067 11.1213221,24.8786798" id="Fill-6" fill-opacity="0" fill="#000000"></path>
            <path d="M11.1213221,24.8786782 C12.2928926,26.0502492 12.2928926,27.9497508 11.1213221,29.1213218 C9.94975156,30.2928927 8.05025369,30.2928927 6.87868015,29.1213218 C5.70710662,27.9497508 5.70710662,26.0502492 6.87868015,24.8786782 C8.05025369,23.7071073 9.94975156,23.7071073 11.1213221,24.8786782" id="Stroke-7" stroke="#808AA2" stroke-width="2" stroke-linecap="round" stroke-linejoin="round"></path>
            <path d="M28.1213218,24.8786798 C29.2928927,26.0502529 29.2928927,27.949747 28.1213218,29.12132 C26.9497508,30.2928933 25.0502492,30.2928933 23.8786782,29.12132 C22.7071073,27.949747 22.7071073,26.0502529 23.8786782,24.8786798 C25.0502492,23.7071067 26.9497508,23.7071067 28.1213218,24.8786798" id="Fill-8" fill-opacity="0" fill="#000000"></path>
            <path d="M28.1213218,24.8786782 C29.2928927,26.0502492 29.2928927,27.9497508 28.1213218,29.1213218 C26.9497508,30.2928927 25.0502492,30.2928927 23.8786782,29.1213218 C22.7071073,27.9497508 22.7071073,26.0502492 23.8786782,24.8786782 C25.0502492,23.7071073 26.9497508,23.7071073 28.1213218,24.8786782" id="Stroke-9" stroke="#808AA2" stroke-width="2" stroke-linecap="round" stroke-linejoin="round"></path>
            <polyline id="Fill-10" fill-opacity="0" fill="#000000" points="4.9 6 29 6 27 20 7 20 4 0 0 0"></polyline>
            <polyline id="Stroke-11" stroke="#808AA2" stroke-width="2" stroke-linecap="round" stroke-linejoin="round" points="4.9 6 29 6 27 20 7 20 4 0 0 0"></polyline>
        </g>
    </g>
</svg>