<?xml version="1.0" encoding="UTF-8" standalone="no"?>
<svg width="32px" height="32px" viewBox="0 0 32 32" version="1.1" xmlns="http://www.w3.org/2000/svg" xmlns:xlink="http://www.w3.org/1999/xlink">
    <!-- Generator: Sketch 40.1 (33804) - http://www.bohemiancoding.com/sketch -->
    <title>Slice 1field-services</title>
    <desc>Created with Sketch.</desc>
    <defs></defs>
    <g id="Page-1" stroke="none" stroke-width="1" fill="none" fill-rule="evenodd">
        <g id="ui-32px-outline-1_settings-tool-67" transform="translate(1.000000, 1.000000)" stroke-width="2" stroke="#808AA2">
            <g id="Group">
                <path d="M29.6,5.2 L25.6,9.2 L20.8,4.4 L24.8,0.4 C23.7,-3.88578059e-16 22.4,-0.1 21.1,0.2 C18.1,0.8 15.8,3.2 15.2,6.1 C15,7.4 15.1,8.6 15.4,9.8 L2.2,21.3 C0.2,23 0.1,26.1 2,28 L2,28 C3.9,29.9 7,29.8 8.7,27.8 L20.2,14.6 C21.3,15 22.6,15.1 23.9,14.8 C26.9,14.2 29.3,11.9 29.8,8.9 C30.1,7.6 30,6.3 29.6,5.2 L29.6,5.2 Z" id="Shape"></path>
                <circle id="Oval" cx="6" cy="24" r="1"></circle>
            </g>
        </g>
    </g>
</svg>