<?xml version="1.0" encoding="UTF-8" standalone="no"?>
<svg width="32px" height="32px" viewBox="0 0 32 32" version="1.1" xmlns="http://www.w3.org/2000/svg" xmlns:xlink="http://www.w3.org/1999/xlink">
    <!-- Generator: Sketch 40.1 (33804) - http://www.bohemiancoding.com/sketch -->
    <title>Slice 1food-delivery</title>
    <desc>Created with Sketch.</desc>
    <defs></defs>
    <g id="Page-1" stroke="none" stroke-width="1" fill="none" fill-rule="evenodd">
        <g id="food-32px-outline_course" transform="translate(1.000000, 1.000000)" stroke-width="2" stroke="#939DB2">
            <g id="Group">
                <path d="M2,25.5666667 C2.5,18.9783333 8.1,13.7666667 15,13.7666667 C21.9,13.7666667 27.5,18.9783333 28,25.5666667" id="Shape"></path>
                <ellipse id="Oval" cx="15" cy="11.8" rx="2" ry="1.96666667"></ellipse>
                <path d="M15,0 L15,4.91666667" id="Shape"></path>
                <path d="M9,1.96666667 L9,6.88333333" id="Shape"></path>
                <path d="M21,1.96666667 L21,6.88333333" id="Shape"></path>
                <path d="M26,29.5 L4,29.5 C1.8,29.5 0,27.73 0,25.5666667 L0,25.5666667 L30,25.5666667 L30,25.5666667 C30,27.73 28.2,29.5 26,29.5 L26,29.5 Z" id="Shape"></path>
                <path d="M12,18.1916667 C9.8,18.9783333 8,20.4533333 7,22.5183333" id="Shape"></path>
            </g>
        </g>
    </g>
</svg>