<?xml version="1.0" encoding="UTF-8" standalone="no"?>
<svg width="43px" height="58px" viewBox="0 0 43 58" version="1.1" xmlns="http://www.w3.org/2000/svg" xmlns:xlink="http://www.w3.org/1999/xlink">
    <!-- Generator: Sketch 3.6.1 (26313) - http://www.bohemiancoding.com/sketch -->
    <title>google_forms_icon</title>
    <desc>Created with Sketch.</desc>
    <defs></defs>
    <g id="Landing" stroke="none" stroke-width="1" fill="none" fill-rule="evenodd">
        <g id="Landing---Uus" transform="translate(-1080.000000, -2279.000000)">
            <g id="Group-2">
                <g id="API" transform="translate(0.000000, 2154.000000)">
                    <g id="google_forms_icon" transform="translate(1080.000000, 125.000000)">
                        <g id="gdocs_backdrop">
                            <path d="M3.26728217,0 C1.46281206,0 0,1.46272398 0,3.26353327 L0,54.7364667 C0,56.5388664 1.45532627,58 3.26728217,58 L39.7327178,58 C41.5371879,58 43,56.537276 43,54.7364667 L43,3.26353327 C43,1.46113361 41.5446737,0 39.7327178,0 L3.26728217,0 Z M26.203125,0 L39.7215191,0 C41.5321741,0 43,1.46224804 43,3.27507934 L43,16.4772727 L29.4816059,16.4772727 C27.6709509,16.4772727 26.203125,15.0150247 26.203125,13.2021934 L26.203125,0 Z" id="vertical-rectangle-copy" fill="#D5D9DF"></path>
                            <path d="M28.890625,16.4772727 L43,16.4772727 L43,28.0113636 L28.890625,16.4772727 Z" id="Triangle-1" fill="#AEB6C1" opacity="0.100338153"></path>
                            <path d="M26.203125,0 L32.9376067,6.60634141 C34.2276504,7.87183888 36.3154761,9.9199385 37.612629,11.1924099 L43,16.4772727 L29.4816059,16.4772727 C27.6709509,16.4772727 26.203125,15.0150247 26.203125,13.2021934 L26.203125,0 Z" id="Rectangle-22-Copy" fill="#EEF1F5"></path>
                        </g>
                        <g id="gf_specific" transform="translate(7.726562, 29.000000)" fill="#FFFFFF">
                            <ellipse id="Oval-35" cx="1.91591613" cy="1.90931448" rx="1.91591613" ry="1.90931448"></ellipse>
                            <ellipse id="Oval-35-Copy" cx="1.91591613" cy="8.78284662" rx="1.91591613" ry="1.90931448"></ellipse>
                            <ellipse id="Oval-35-Copy-2" cx="1.91591613" cy="15.6563788" rx="1.91591613" ry="1.90931448"></ellipse>
                            <rect id="Rectangle-24" x="5.36456516" y="0" width="22.2246271" height="3.81862897"></rect>
                            <rect id="Rectangle-24-Copy" x="5.36456516" y="6.87353214" width="22.2246271" height="3.81862897"></rect>
                            <rect id="Rectangle-24-Copy-2" x="5.36456516" y="13.7470643" width="22.2246271" height="3.81862897"></rect>
                        </g>
                    </g>
                </g>
            </g>
        </g>
    </g>
</svg>