<?xml version="1.0" encoding="UTF-8" standalone="no"?>
<svg viewBox="0 0 40 40" version="1.1" xmlns="http://www.w3.org/2000/svg" xmlns:xlink="http://www.w3.org/1999/xlink" xmlns:sketch="http://www.bohemiancoding.com/sketch/ns">
    <!-- Generator: Sketch 3.3.3 (12072) - http://www.bohemiancoding.com/sketch -->
    <title>Oval 5 + Shape</title>
    <desc>Created with Sketch.</desc>
    <defs></defs>
    <g id="Landing" stroke="none" stroke-width="1" fill="none" fill-rule="evenodd" sketch:type="MSPage">
        <g sketch:type="MSArtboardGroup" transform="translate(-957.000000, -1372.000000)" id="features">
            <g sketch:type="MSLayerGroup" transform="translate(0.000000, 680.000000)">
                <g id="icons" transform="translate(194.000000, 294.000000)" sketch:type="MSShapeGroup">
                    <g id="4-copy" transform="translate(763.000000, 397.000000)">
                        <g id="Oval-5-+-Shape" transform="translate(0.000000, 1.000000)">
                            <circle id="Oval-5" fill="#353B46" cx="20" cy="20" r="20"></circle>
                            <g id="Group" transform="translate(9.000000, 14.000000)" fill="#FFFFFF">
                                <path d="M20.1142857,1.62441187 L20.1142857,1.08333333 L17.6,1.08333333 L17.6,3.25 L20.1142857,3.25 L20.1142857,2.70656895 L22,2.70656895 L22,1.62441187 L20.1142857,1.62441187 Z" id="Shape"></path>
                                <path d="M20.1142857,5.41666667 L17.6,5.41666667 L17.6,7.58333333 L20.1142857,7.58333333 L20.1142857,7.04196089 L22,7.04196089 L22,5.95921601 L20.1142857,5.95921601 L20.1142857,5.41666667 Z" id="Shape"></path>
                                <path d="M20.1142857,9.75 L17.6,9.75 L17.6,11.9166667 L20.1142857,11.9166667 L20.1142857,11.3761775 L22,11.3761775 L22,10.2928442 L20.1142857,10.2928442 L20.1142857,9.75 Z" id="Shape"></path>
                                <path d="M1.88571429,1.62588267 L0,1.62588267 L0,2.70862756 L1.88571429,2.70862756 L1.88571429,3.25 L4.4,3.25 L4.4,1.08333333 L1.88571429,1.08333333 L1.88571429,1.62588267 Z" id="Shape"></path>
                                <path d="M1.88571429,5.96009772 L0,5.96009772 L0,7.0422548 L1.88571429,7.0422548 L1.88571429,7.58333333 L4.4,7.58333333 L4.4,5.41666667 L1.88571429,5.41666667 L1.88571429,5.96009772 Z" id="Shape"></path>
                                <path d="M1.88571429,10.2913724 L0,10.2913724 L0,11.3741173 L1.88571429,11.3741173 L1.88571429,11.9166667 L4.4,11.9166667 L4.4,9.75 L1.88571429,9.75 L1.88571429,10.2913724 Z" id="Shape"></path>
                                <path d="M16.0477501,9.85878046e-14 L5.95224992,9.85878046e-14 C5.7017913,9.85878046e-14 5.5,0.201256716 5.5,0.451051817 L5.5,12.5477643 C5.5,12.7975594 5.7017913,13 5.95224992,13 L16.0477501,13 C16.2970217,13 16.5,12.7975594 16.5,12.5477643 L16.5,0.451051817 C16.5,0.201256716 16.2970217,9.85878046e-14 16.0477501,9.85878046e-14 L16.0477501,9.85878046e-14 Z M7.52266106,3.11474365 C7.00156469,3.11474365 6.58017697,2.69447227 6.58017697,2.17594026 C6.58017697,1.65740825 7.00156469,1.23595301 7.52266106,1.23595301 C8.04257041,1.23595301 8.46395813,1.65622439 8.46395813,2.17594026 C8.46395813,2.69328841 8.04375742,3.11474365 7.52266106,3.11474365 L7.52266106,3.11474365 Z" id="Shape"></path>
                            </g>
                        </g>
                    </g>
                </g>
            </g>
        </g>
    </g>
</svg>
