<?xml version="1.0" encoding="UTF-8" standalone="no"?>
<svg width="11px" height="13px" viewBox="0 0 11 13" version="1.1" xmlns="http://www.w3.org/2000/svg" xmlns:xlink="http://www.w3.org/1999/xlink">
    <!-- Generator: Sketch 3.6.1 (26313) - http://www.bohemiancoding.com/sketch -->
    <title>Shape Copy 8</title>
    <desc>Created with Sketch.</desc>
    <defs></defs>
    <g id="Feature-page" stroke="none" stroke-width="1" fill="none" fill-rule="evenodd">
        <g id="Feature-ver1-hover" transform="translate(-1309.000000, -42.000000)" fill="#FFFFFF">
            <g id="group" transform="translate(-10.000000, 0.000000)">
                <g id="hero">
                    <g id="nav" transform="translate(110.000000, 28.000000)">
                        <g id="language" transform="translate(1181.000000, 8.000000)">
                            <path d="M31.9150729,17.7311987 L27.2722987,13.1480563 C26.9092338,12.7905712 26.9092338,12.2094288 27.2722987,11.8519437 L31.9150729,7.2688013 C32.2781379,6.91039957 32.8659131,6.91039957 33.2280495,7.2688013 C33.5901859,7.62720303 33.5911144,8.20742886 33.2280495,8.56491396 L30.1703184,11.5833715 L39.0714452,11.5833715 C39.5840074,11.5833715 40,11.9940211 40,12.5 C40,13.0059789 39.5840074,13.4166285 39.0714452,13.4166285 L30.1703184,13.4166285 L33.2280495,16.435086 C33.4091177,16.6138286 33.5001161,16.8484855 33.5001161,17.0831424 C33.5001161,17.3177993 33.4091177,17.5524561 33.2280495,17.7311987 C32.8649846,18.0896004 32.2772093,18.0896004 31.9150729,17.7311987 L31.9150729,17.7311987 Z" id="Shape-Copy-8" transform="translate(33.500000, 12.500000) scale(-1, -1) rotate(-270.000000) translate(-33.500000, -12.500000) "></path>
                        </g>
                    </g>
                </g>
            </g>
        </g>
    </g>
</svg>