<?xml version="1.0" encoding="UTF-8" standalone="no"?>
<svg viewBox="0 0 52 52" version="1.1" xmlns="http://www.w3.org/2000/svg" xmlns:xlink="http://www.w3.org/1999/xlink" xmlns:sketch="http://www.bohemiancoding.com/sketch/ns">
    <!-- Generator: Sketch 3.3.3 (12081) - http://www.bohemiancoding.com/sketch -->
    <title>Oval 5 + Shape + Group</title>
    <desc>Created with Sketch.</desc>
    <defs></defs>
    <g id="Landing" stroke="none" stroke-width="1" fill="none" fill-rule="evenodd" sketch:type="MSPage">
        <g id="Landing-w-screenshot" sketch:type="MSArtboardGroup" transform="translate(-752.000000, -1066.000000)">
            <g id="features" sketch:type="MSLayerGroup" transform="translate(32.000000, 780.000000)">
                <g id="icons" transform="translate(281.000000, 280.000000)" sketch:type="MSShapeGroup">
                    <g id="5" transform="translate(439.000000, 0.000000)">
                        <g id="Oval-5-+-Shape-+-Group" transform="translate(0.000000, 6.000000)">
                            <g id="Oval-5-+-Shape" fill="#353B46">
                                <circle id="Oval-5" cx="26" cy="26" r="26"></circle>
                            </g>
                            <g id="Group" transform="translate(11.000000, 11.000000)" fill="#FFFFFF">
                                <path d="M26.2969288,13 L23.1234985,13 L22.6989806,13 C21.7608597,13 21,13.6357767 21,14.4223319 L21,14.5765287 C21,15.3638435 21.7608597,16 22.7003441,16 L25.876956,16 L26.2969288,16 C27.2368677,16 28,15.361185 28,14.5765287 L27.9981819,14.420433 C28,13.6357767 27.2368677,13 26.2969288,13 L26.2969288,13 Z" id="Shape"></path>
                                <path d="M26.4498972,9.45793432 L25.7669906,9.45793432 L25.7669906,1.95929726 C25.7669906,0.881559606 24.8848856,0 23.8060671,0 L10.8689414,0 C9.79053704,0 8.90843206,0.881973483 8.90843206,1.95929726 L8.90843206,7.33929412 C6.29897502,8.81352667 3.60751949,10.3535658 3.60172161,10.3572907 C2.14065759,10.9582412 7.10542736e-15,12.8972584 7.10542736e-15,17.475988 C7.10542736e-15,17.8848992 0.0269186967,18.2623557 0.064604872,18.626982 C0.076614752,18.7337624 0.0898670335,18.8364041 0.104361716,18.9394597 C0.142047892,19.2072386 0.189259144,19.4634289 0.24558134,19.706789 C0.265873896,19.7937033 0.28161098,19.8843426 0.303560072,19.967532 C0.379346556,20.2489689 0.467142921,20.5130229 0.565706764,20.7642467 C0.615402819,20.8888239 0.669240212,21.0022264 0.72349174,21.1189399 C0.781470471,21.2418616 0.839863336,21.3627139 0.902397539,21.4757025 C0.974870953,21.6118683 1.04734437,21.7430675 1.12685806,21.8676448 C1.14590821,21.8966162 1.1666149,21.9231044 1.18607919,21.9524897 C3.07287276,24.8028657 6.5536673,24.815696 6.5536673,24.815696 L8.90843206,24.815696 L8.90843206,27.0419444 C8.90843206,28.1184404 9.79053704,29 10.8689414,29 L23.8056529,29 C24.8844715,29 25.7665764,28.1180265 25.7665764,27.0419444 L25.7665764,24.3264925 L26.065581,24.3264925 L26.065581,24.3248369 L26.4469983,24.3248369 C27.3046694,24.3248369 28,23.6315917 27.9983435,22.7744509 L28,22.6055888 C27.9983435,21.7496896 27.3046694,21.0585138 26.4482407,21.0585138 L26.065581,21.0585138 L23.5563444,21.0585138 L23.1695434,21.0585138 C22.3131147,21.0585138 21.6215113,21.7513451 21.6215113,22.6068304 L21.6215113,22.7785897 C21.6215113,23.6320056 22.3147713,24.3277341 23.1707858,24.3277341 L24.4024197,24.3277341 L24.4024197,25.3765003 L10.2721746,25.3765003 L10.2721746,11.3083817 C10.982,10.8584966 11.6392303,10.4255805 12.0140214,10.1354522 C13.9128248,8.6678417 15.7151351,7.49905094 15.9590599,6.43911002 C16.2767005,5.06379426 15.2202452,3.90493656 13.3877032,4.85644151 C12.8104007,5.156089 11.6255639,5.81291299 10.2721746,6.57237866 L10.2721746,3.10491087 L24.4024197,3.10698026 L24.4024197,9.45710657 L23.5563444,9.45710657 L23.5563444,9.45876208 L23.1716141,9.45876208 C22.3147713,9.45876208 21.6194406,10.1515934 21.6194406,11.009562 L21.6194406,11.1775964 C21.6194406,12.0351511 22.3147713,12.7263269 23.1695434,12.7263269 L23.5542737,12.7263269 L26.0635104,12.7263269 L26.4490689,12.7263269 C27.3046694,12.7263269 27.9983435,12.0334956 27.9983435,11.1775964 L27.9983435,11.0050093 C28,10.1528351 27.30674,9.45793432 26.4498972,9.45793432 L26.4498972,9.45793432 Z M17.3356407,26.0643651 C17.8789842,26.0643651 18.3171377,26.5026617 18.3171377,27.0444276 C18.3171377,27.5874352 17.8785701,28.0240763 17.3356407,28.0240763 C16.7943678,28.0240763 16.3570425,27.5861936 16.3570425,27.0444276 C16.3578708,26.5043172 16.7964384,26.0643651 17.3356407,26.0643651 L17.3356407,26.0643651 Z M19.407552,1.88645478 L15.2678706,1.88645478 C15.1378326,1.88645478 15.0301578,1.78091595 15.0301578,1.65054446 C15.0301578,1.51810358 15.1378326,1.41256476 15.2678706,1.41256476 L19.407552,1.41256476 C19.53759,1.41256476 19.6436083,1.51768971 19.6436083,1.65054446 C19.6436083,1.78050208 19.53759,1.88645478 19.407552,1.88645478 L19.407552,1.88645478 Z" id="Shape"></path>
                                <path d="M26.2985133,17 L25.8785951,17 L22.7010323,17 C21.7630332,17 21,17.6376757 21,18.4227117 L21,18.5784276 C21,19.3642233 21.7612153,20 22.7010323,20 L23.1232227,20 L25.8767773,20 L26.2976044,20 C27.2387847,20 27.9977277,19.3642233 28,18.5784276 L28,18.4227117 C27.9995455,17.6376757 27.2406025,17 26.2985133,17 L26.2985133,17 Z" id="Shape"></path>
                            </g>
                        </g>
                    </g>
                </g>
            </g>
        </g>
    </g>
</svg>
