<?xml version="1.0" encoding="UTF-8" standalone="no"?>
<svg width="179px" height="197px" viewBox="0 0 179 197" version="1.1" xmlns="http://www.w3.org/2000/svg" xmlns:xlink="http://www.w3.org/1999/xlink">
    <!-- Generator: Sketch 40.1 (33804) - http://www.bohemiancoding.com/sketch -->
    <title>Slice 1</title>
    <desc>Created with Sketch.</desc>
    <defs>
        <filter x="-50%" y="-50%" width="200%" height="200%" filterUnits="objectBoundingBox" id="filter-1">
            <feOffset dx="0" dy="2" in="SourceAlpha" result="shadowOffsetOuter1"></feOffset>
            <feGaussianBlur stdDeviation="17" in="shadowOffsetOuter1" result="shadowBlurOuter1"></feGaussianBlur>
            <feColorMatrix values="0 0 0 0 0   0 0 0 0 0   0 0 0 0 0  0 0 0 1 0" type="matrix" in="shadowBlurOuter1" result="shadowMatrixOuter1"></feColorMatrix>
            <feMerge>
                <feMergeNode in="shadowMatrixOuter1"></feMergeNode>
                <feMergeNode in="SourceGraphic"></feMergeNode>
            </feMerge>
        </filter>
        <path d="M89.6339443,20.0031373 C78.5902315,0.874522103 54.1298186,-5.67982103 35.0030229,5.36609773 C15.8746988,16.4084503 9.32020075,40.8682166 20.3659514,59.9960676 C31.4081359,79.1246828 55.8677846,85.6800449 74.9948351,74.635145 C94.1234138,63.5889715 100.680969,39.1304789 89.6339443,20.0031373 Z M69.3970716,38.3744534 L48.4553839,26.160618 C46.5470091,25.0464485 45.0077261,25.9372237 45.0184244,28.1446753 L45.1256622,52.3879249 C45.1353416,54.594867 46.6934741,55.4932841 48.6074528,54.3877752 L69.3889205,42.3894376 C71.3008614,41.2859665 71.3049369,39.488623 69.3970716,38.3744534 Z" id="path-2"></path>
        <filter x="-50%" y="-50%" width="200%" height="200%" filterUnits="objectBoundingBox" id="filter-3">
            <feOffset dx="0" dy="2" in="SourceAlpha" result="shadowOffsetOuter1"></feOffset>
            <feGaussianBlur stdDeviation="2" in="shadowOffsetOuter1" result="shadowBlurOuter1"></feGaussianBlur>
            <feComposite in="shadowBlurOuter1" in2="SourceAlpha" operator="out" result="shadowBlurOuter1"></feComposite>
            <feColorMatrix values="0 0 0 0 0   0 0 0 0 0   0 0 0 0 0  0 0 0 0.5 0" type="matrix" in="shadowBlurOuter1"></feColorMatrix>
        </filter>
    </defs>
    <g id="Page-1" stroke="none" stroke-width="1" fill="none" fill-rule="evenodd">
        <g id="play-button" filter="url(#filter-1)" transform="translate(34.000000, 34.000000)">
            <g id="Combined-Shape">
                <use fill="black" fill-opacity="1" filter="url(#filter-3)" xlink:href="#path-2"></use>
                <use fill-opacity="0.700000048" fill="#FFFFFF" fill-rule="evenodd" xlink:href="#path-2"></use>
            </g>
            <g id="Group-6" transform="translate(0.000000, 98.000000)">
                <rect id="Rectangle-221-Copy" fill-opacity="0.700000048" fill="#FFFFFF" x="0" y="0" width="111" height="29" rx="14.5"></rect>
                <path d="M22.9555,14.1904994 C23.4725026,14.1904994 23.8510821,14.065834 24.09125,13.8164994 C24.3314179,13.5671648 24.4515,13.2261682 24.4515,12.7934994 C24.4515,12.5954984 24.4212503,12.4149169 24.36075,12.2517494 C24.3002497,12.0885819 24.2085839,11.94925 24.08575,11.8337494 C23.9629161,11.7182488 23.8080009,11.629333 23.621,11.5669994 C23.4339991,11.5046657 23.212168,11.4734994 22.9555,11.4734994 L21.9105,11.4734994 L21.9105,14.1904994 L22.9555,14.1904994 Z M22.9555,10.2194994 C23.5018361,10.2194994 23.9739147,10.2836654 24.37175,10.4119994 C24.7695853,10.5403334 25.0968321,10.7190816 25.3535,10.9482494 C25.610168,11.1774172 25.7999161,11.4496645 25.92275,11.7649994 C26.0455839,12.0803343 26.107,12.4231642 26.107,12.7934994 C26.107,13.1858347 26.042834,13.5451644 25.9145,13.8714994 C25.786166,14.1978344 25.5918346,14.4783316 25.3315,14.7129994 C25.0711654,14.9476672 24.743002,15.1300821 24.347,15.2602494 C23.950998,15.3904167 23.4871693,15.4554994 22.9555,15.4554994 L21.9105,15.4554994 L21.9105,18.1999994 L20.2605,18.1999994 L20.2605,10.2194994 L22.9555,10.2194994 Z M32.893,16.8579994 L32.893,18.1999994 L28.1575,18.1999994 L28.1575,10.2194994 L29.8075,10.2194994 L29.8075,16.8579994 L32.893,16.8579994 Z M39.1125,15.1694994 L38.249,12.7274994 C38.1976664,12.5991654 38.1435836,12.4488336 38.08675,12.2764994 C38.0299164,12.1041652 37.9758336,11.9171671 37.9245,11.7154994 C37.8731664,11.9208338 37.8190836,12.1105819 37.76225,12.2847494 C37.7054164,12.4589169 37.6513336,12.6101654 37.6,12.7384994 L36.742,15.1694994 L39.1125,15.1694994 Z M41.8845,18.1999994 L40.603,18.1999994 C40.4599993,18.1999994 40.3435838,18.1660831 40.25375,18.0982494 C40.1639162,18.0304157 40.0970002,17.9433333 40.053,17.8369994 L39.514,16.3134994 L36.335,16.3134994 L35.796,17.8369994 C35.7593332,17.9286665 35.6951671,18.0120823 35.6035,18.0872494 C35.5118329,18.1624164 35.396334,18.1999994 35.257,18.1999994 L33.9645,18.1999994 L37.083,10.2194994 L38.7715,10.2194994 L41.8845,18.1999994 Z M46.3825,15.1309994 L46.3825,18.1999994 L44.7325,18.1999994 L44.7325,15.1309994 L41.834,10.2194994 L43.286,10.2194994 C43.4290007,10.2194994 43.5435829,10.2534157 43.62975,10.3212494 C43.7159171,10.3890831 43.7846664,10.4761655 43.836,10.5824994 L45.145,13.0959994 C45.2330004,13.2646669 45.3127496,13.422332 45.38425,13.5689994 C45.4557504,13.7156668 45.5189997,13.862332 45.574,14.0089994 C45.6253336,13.862332 45.6849163,13.7147501 45.75275,13.5662494 C45.8205837,13.4177486 45.8966662,13.2610002 45.981,13.0959994 L47.279,10.5824994 C47.3230002,10.494499 47.3889996,10.4119998 47.477,10.3349994 C47.5650004,10.257999 47.678666,10.2194994 47.818,10.2194994 L49.281,10.2194994 L46.3825,15.1309994 Z M60.7355,10.2194994 L57.5235,18.1999994 L56.0275,18.1999994 L52.8155,10.2194994 L54.1465,10.2194994 C54.2895007,10.2194994 54.4059162,10.2534157 54.49575,10.3212494 C54.5855838,10.3890831 54.6524998,10.4761655 54.6965,10.5824994 L56.4235,15.1804994 C56.4895003,15.3528336 56.554583,15.5407484 56.61875,15.7442494 C56.682917,15.9477504 56.7424997,16.1613316 56.7975,16.3849994 C56.8451669,16.1613316 56.8974164,15.9477504 56.95425,15.7442494 C57.0110836,15.5407484 57.0724997,15.3528336 57.1385,15.1804994 L58.8545,10.5824994 C58.8911669,10.4908323 58.9562495,10.4074164 59.04975,10.3322494 C59.1432505,10.2570823 59.259666,10.2194994 59.399,10.2194994 L60.7355,10.2194994 Z M64.1335,18.1999994 L62.4725,18.1999994 L62.4725,10.2194994 L64.1335,10.2194994 L64.1335,18.1999994 Z M73.961,14.2069994 C73.961,14.7900023 73.8629176,15.3262469 73.66675,15.8157494 C73.4705824,16.3052518 73.1937518,16.7259976 72.83625,17.0779994 C72.4787482,17.4300012 72.0488358,17.7049984 71.5465,17.9029994 C71.0441642,18.1010004 70.4868364,18.1999994 69.8745,18.1999994 L66.8055,18.1999994 L66.8055,10.2194994 L69.8745,10.2194994 C70.4868364,10.2194994 71.0441642,10.3184984 71.5465,10.5164994 C72.0488358,10.7145004 72.4787482,10.9904143 72.83625,11.3442494 C73.1937518,11.6980845 73.4705824,12.1188303 73.66675,12.6064994 C73.8629176,13.0941685 73.961,13.6276632 73.961,14.2069994 L73.961,14.2069994 Z M72.267,14.2069994 C72.267,13.7889973 72.2120006,13.4131677 72.102,13.0794994 C71.9919995,12.7458311 71.8343344,12.4635005 71.629,12.2324994 C71.4236656,12.0014982 71.1734181,11.8236667 70.87825,11.6989994 C70.5830819,11.5743321 70.2485019,11.5119994 69.8745,11.5119994 L68.4665,11.5119994 L68.4665,16.9074994 L69.8745,16.9074994 C70.2485019,16.9074994 70.5830819,16.8460833 70.87825,16.7232494 C71.1734181,16.6004154 71.4236656,16.4225839 71.629,16.1897494 C71.8343344,15.9569149 71.9919995,15.6736677 72.102,15.3399994 C72.2120006,15.0063311 72.267,14.6286682 72.267,14.2069994 L72.267,14.2069994 Z M77.8375,11.5119994 L77.8375,13.5634994 L80.4995,13.5634994 L80.4995,14.8119994 L77.8375,14.8119994 L77.8375,16.9074994 L81.2585,16.9074994 L81.2585,18.1999994 L76.1765,18.1999994 L76.1765,10.2194994 L81.2585,10.2194994 L81.2585,11.5119994 L77.8375,11.5119994 Z M91.2015,14.2069994 C91.2015,14.7900023 91.1034176,15.3308302 90.90725,15.8294994 C90.7110824,16.3281686 90.4342518,16.7589976 90.07675,17.1219994 C89.7192482,17.4850012 89.2893358,17.7700817 88.787,17.9772494 C88.2846642,18.1844171 87.7273364,18.2879994 87.115,18.2879994 C86.5026636,18.2879994 85.9453358,18.1844171 85.443,17.9772494 C84.9406642,17.7700817 84.5098351,17.4850012 84.1505,17.1219994 C83.7911649,16.7589976 83.5134176,16.3281686 83.31725,15.8294994 C83.1210824,15.3308302 83.023,14.7900023 83.023,14.2069994 C83.023,13.6239965 83.1210824,13.0840852 83.31725,12.5872494 C83.5134176,12.0904136 83.7911649,11.6605012 84.1505,11.2974994 C84.5098351,10.9344976 84.9406642,10.6494171 85.443,10.4422494 C85.9453358,10.2350817 86.5026636,10.1314994 87.115,10.1314994 C87.7273364,10.1314994 88.2846642,10.2350817 88.787,10.4422494 C89.2893358,10.6494171 89.7192482,10.9354142 90.07675,11.3002494 C90.4342518,11.6650845 90.7110824,12.0959136 90.90725,12.5927494 C91.1034176,13.0895852 91.2015,13.6276632 91.2015,14.2069994 L91.2015,14.2069994 Z M89.513,14.2069994 C89.513,13.7889973 89.4580006,13.4140844 89.348,13.0822494 C89.2379995,12.7504144 89.0794177,12.4680839 88.87225,12.2352494 C88.6650823,12.0024149 88.4139181,11.8245833 88.11875,11.7017494 C87.8235819,11.5789154 87.4890019,11.5174994 87.115,11.5174994 C86.7409981,11.5174994 86.4055015,11.5789154 86.1085,11.7017494 C85.8114985,11.8245833 85.5594177,12.0024149 85.35225,12.2352494 C85.1450823,12.4680839 84.9865006,12.7504144 84.8765,13.0822494 C84.7664995,13.4140844 84.7115,13.7889973 84.7115,14.2069994 C84.7115,14.6286682 84.7664995,15.0054144 84.8765,15.3372494 C84.9865006,15.6690844 85.1450823,15.9504982 85.35225,16.1814994 C85.5594177,16.4125005 85.8114985,16.5894154 86.1085,16.7122494 C86.4055015,16.8350833 86.7409981,16.8964994 87.115,16.8964994 C87.4890019,16.8964994 87.8235819,16.8350833 88.11875,16.7122494 C88.4139181,16.5894154 88.6650823,16.4125005 88.87225,16.1814994 C89.0794177,15.9504982 89.2379995,15.6690844 89.348,15.3372494 C89.4580006,15.0054144 89.513,14.6286682 89.513,14.2069994 L89.513,14.2069994 Z" id="PLAY-VIDEO" fill="#1F232B"></path>
            </g>
        </g>
    </g>
</svg>