<?xml version="1.0" encoding="UTF-8" standalone="no"?>
<svg width="14px" height="12px" viewBox="0 0 14 12" version="1.1" xmlns="http://www.w3.org/2000/svg" xmlns:xlink="http://www.w3.org/1999/xlink">
    <!-- Generator: Sketch 3.6.1 (26313) - http://www.bohemiancoding.com/sketch -->
    <title>Shape Copy 8</title>
    <desc>Created with Sketch.</desc>
    <defs></defs>
    <g id="Landing" stroke="none" stroke-width="1" fill="none" fill-rule="evenodd">
        <g id="Landing---Uus" transform="translate(-377.000000, -2563.000000)" fill="#FFFFFF">
            <g id="Group-2">
                <g id="API" transform="translate(0.000000, 2154.000000)">
                    <g id="button-forms" transform="translate(250.000000, 392.000000)">
                        <path d="M127.29325,23.70725 C126.90225,23.31725 126.90225,22.68325 127.29325,22.29325 L132.29325,17.29325 C132.68425,16.90225 133.31725,16.90225 133.70725,17.29325 C134.09725,17.68425 134.09825,18.31725 133.70725,18.70725 L130.41425,22.00025 L140.00025,22.00025 C140.55225,22.00025 141.00025,22.44825 141.00025,23.00025 C141.00025,23.55225 140.55225,24.00025 140.00025,24.00025 L130.41425,24.00025 L133.70725,27.29325 C133.90225,27.48825 134.00025,27.74425 134.00025,28.00025 C134.00025,28.25625 133.90225,28.51225 133.70725,28.70725 C133.31625,29.09825 132.68325,29.09825 132.29325,28.70725 L127.29325,23.70725 Z" id="Shape-Copy-8" transform="translate(134.000125, 23.000250) scale(-1, 1) translate(-134.000125, -23.000250) "></path>
                    </g>
                </g>
            </g>
        </g>
    </g>
</svg>