<?xml version="1.0" encoding="UTF-8" standalone="no"?>
<svg width="28px" height="29px" viewBox="0 0 28 29" version="1.1" xmlns="http://www.w3.org/2000/svg" xmlns:xlink="http://www.w3.org/1999/xlink">
    <!-- Generator: Sketch 3.7.1 (28215) - http://www.bohemiancoding.com/sketch -->
    <title>Group</title>
    <desc>Created with Sketch.</desc>
    <defs></defs>
    <g id="Landing" stroke="none" stroke-width="1" fill="none" fill-rule="evenodd" stroke-linecap="round" stroke-linejoin="round">
        <g id="Landing---Uus" transform="translate(-939.000000, -807.000000)" stroke="#555A65" stroke-width="1.2">
            <g id="group">
                <g id="clients" transform="translate(0.000000, 780.000000)">
                    <g id="route" transform="translate(939.000000, 20.000000)">
                        <g id="Group" transform="translate(0.000000, 7.000000)">
                            <path d="M16.7970522,4.99790833 C16.7970522,7.42303333 12.5275304,12.6877417 12.5275304,12.6877417 C12.5275304,12.6877417 8.26035652,7.42303333 8.26035652,4.99790833 C8.26035652,2.571575 10.170313,0.604408333 12.5275304,0.604408333 C14.8859217,0.604408333 16.7970522,2.571575 16.7970522,4.99790833 L16.7970522,4.99790833 Z" id="Stroke-1646"></path>
                            <path d="M14.1293348,4.99790833 C14.1293348,5.90778333 13.4120739,6.646075 12.5281174,6.646075 C11.6441609,6.646075 10.9269,5.90778333 10.9269,4.99790833 C10.9269,4.08803333 11.6441609,3.34974167 12.5281174,3.34974167 C13.4120739,3.34974167 14.1293348,4.08803333 14.1293348,4.99790833 L14.1293348,4.99790833 Z" id="Stroke-1647"></path>
                            <path d="M26.935787,13.0167708 C26.935787,15.2026458 23.0935696,19.9381042 23.0935696,19.9381042 C23.0935696,19.9381042 19.2513522,15.2026458 19.2513522,13.0167708 C19.2513522,10.8333125 20.9699609,9.06310417 23.0935696,9.06310417 C25.2148304,9.06310417 26.935787,10.8333125 26.935787,13.0167708 L26.935787,13.0167708 Z" id="Stroke-1648"></path>
                            <path d="M24.5340783,13.0167708 C24.5340783,13.8372292 23.8884261,14.5006042 23.093687,14.5006042 C22.2977739,14.5006042 21.6532957,13.8372292 21.6532957,13.0167708 C21.6532957,12.1975208 22.2977739,11.5341458 23.093687,11.5341458 C23.8884261,11.5341458 24.5340783,12.1975208 24.5340783,13.0167708 L24.5340783,13.0167708 Z" id="Stroke-1649"></path>
                            <path d="M10.2843,18.5102167 C9.8523,21.16855 5.48182174,25.6998 5.48182174,28.3955917 C5.48182174,25.6998 1.2299087,21.6047583 0.680517391,18.5102167 C0.135821739,15.4398417 1.99060435,12.6872583 5.48182174,12.6872583 C8.97538696,12.6872583 10.7949522,15.3842583 10.2843,18.5102167 L10.2843,18.5102167 Z" id="Stroke-1650"></path>
                            <path d="M7.68091304,17.4087 C7.68091304,18.659325 6.69717391,19.6731167 5.48217391,19.6731167 C4.26834783,19.6731167 3.28343478,18.659325 3.28343478,17.4087 C3.28343478,16.1592833 4.26834783,15.1467 5.48217391,15.1467 C6.69717391,15.1467 7.68091304,16.1592833 7.68091304,17.4087 L7.68091304,17.4087 Z" id="Stroke-1651"></path>
                            <path d="M13.6054174,14.5 L19.3646348,18.45125" id="Stroke-1652"></path>
                            <path d="M8.48105217,26.9574333 L20.1579652,21.3471417" id="Stroke-1653"></path>
                        </g>
                    </g>
                </g>
            </g>
        </g>
    </g>
</svg>