<?xml version="1.0" encoding="UTF-8" standalone="no"?>
<svg viewBox="0 0 52 52" version="1.1" xmlns="http://www.w3.org/2000/svg" xmlns:xlink="http://www.w3.org/1999/xlink" xmlns:sketch="http://www.bohemiancoding.com/sketch/ns">
    <!-- Generator: Sketch 3.3.3 (12081) - http://www.bohemiancoding.com/sketch -->
    <title>Shape + Oval 5 + Shape + Shape</title>
    <desc>Created with Sketch.</desc>
    <defs></defs>
    <g id="Landing" stroke="none" stroke-width="1" fill="none" fill-rule="evenodd" sketch:type="MSPage">
        <g id="Landing-w-screenshot" sketch:type="MSArtboardGroup" transform="translate(-281.000000, -1437.000000)">
            <g id="features" sketch:type="MSLayerGroup" transform="translate(0.000000, 740.000000)">
                <g id="icons" transform="translate(281.000000, 280.000000)" sketch:type="MSShapeGroup">
                    <g id="4" transform="translate(0.000000, 412.000000)">
                        <g id="Shape-+-Oval-5-+-Shape-+-Shape" transform="translate(0.000000, 5.000000)">
                            <g id="Shape-+-Oval-5-+-Shape" fill="#353B46">
                                <g id="Oval-5-+-Shape">
                                    <circle id="Oval-5" cx="26" cy="26" r="26"></circle>
                                </g>
                            </g>
                            <path d="M40.6871959,18.9707156 C40.4910327,18.8150851 40.2383497,18.7706283 40.0051844,18.8504729 L34.5562365,20.7518413 L31.1357227,18.8847827 C30.9664542,19.3970822 30.7720335,19.9133772 30.5573982,20.4306235 L33.7297019,22.1624091 L33.7297019,35.8205389 L27.7921175,32.5793784 L27.7921175,25.3512488 C27.2794325,26.0281844 26.763088,26.6059959 26.2670162,27.0202495 L26.2670162,32.5692314 L20.27024,35.7135508 L20.27024,23.2535983 C19.9462831,22.7000129 19.6391136,22.1159863 19.3522168,21.518832 C19.150419,21.0984901 18.9570439,20.6740894 18.7811533,20.2446786 L14.0771845,17.9148508 C13.8421603,17.7975889 13.5673458,17.8188343 13.3498642,17.9734501 C13.1314532,18.1270511 13,18.3907478 13,18.6737239 L13,34.1930143 C13,34.5193056 13.1749612,34.8162973 13.4479168,34.9517605 L19.1930556,37.796932 C19.3984549,37.8989099 19.6344665,37.8959292 19.838007,37.7888144 L27.0231481,34.0211485 L34.1508401,37.9121645 C34.2581287,37.9707004 34.3747695,38 34.4923396,38 C34.5700033,38 34.6487126,37.9868722 34.7245756,37.9606802 L40.4696563,35.9561289 C40.7852485,35.8459699 41,35.52564 41,35.1630095 L41,19.6437192 C41,19.3778028 40.8842886,19.128312 40.6871959,18.9707156 L40.6871959,18.9707156 Z M14.5251013,19.9659517 L18.7450807,22.0553576 L18.7450807,35.7458312 L14.5251013,33.6564252 L14.5251013,19.9659517 L14.5251013,19.9659517 Z M39.4748987,34.5546934 L35.2548612,36.0277925 L35.2548612,22.2563962 L39.4748987,20.7843118 L39.4748987,34.5546934 Z M24.7599686,26.8 C26.0122813,26.8 30.92,20.631701 30.92,16.4324195 C30.92,13.5009281 29.4766235,10 24.7599686,10 C20.0424969,10 18.6,13.5009281 18.6,16.4324195 C18.6,20.6784654 23.580852,26.8 24.7599686,26.8 Z M22.0273987,15.7856807 C22.0273987,14.3480176 23.2525691,13.1795047 24.7599686,13.1795047 C26.2674309,13.1795047 27.4926642,14.3480775 27.4926642,15.7856807 C27.4926642,17.2204696 26.2674309,18.3899406 24.7599686,18.3899406 C23.2525691,18.3900004 22.0273987,17.2204696 22.0273987,15.7856807 L22.0273987,15.7856807 Z" id="Shape" fill="#FFFFFF"></path>
                        </g>
                    </g>
                </g>
            </g>
        </g>
    </g>
</svg>
