<?xml version="1.0" encoding="UTF-8" standalone="no"?>
<svg viewBox="0 0 52 52" version="1.1" xmlns="http://www.w3.org/2000/svg" xmlns:xlink="http://www.w3.org/1999/xlink" xmlns:sketch="http://www.bohemiancoding.com/sketch/ns">
    <!-- Generator: Sketch 3.3.3 (12081) - http://www.bohemiancoding.com/sketch -->
    <title>Oval 5 + Shape</title>
    <desc>Created with Sketch.</desc>
    <defs></defs>
    <g id="Landing" stroke="none" stroke-width="1" fill="none" fill-rule="evenodd" sketch:type="MSPage">
        <g id="Landing-w-screenshot" sketch:type="MSArtboardGroup" transform="translate(-719.000000, -1303.000000)">
            <g id="features" sketch:type="MSLayerGroup" transform="translate(0.000000, 740.000000)">
                <g id="icons" transform="translate(281.000000, 280.000000)" sketch:type="MSShapeGroup">
                    <g id="7" transform="translate(438.000000, 277.000000)">
                        <g id="Oval-5-+-Shape" transform="translate(0.000000, 6.000000)">
                            <circle id="Oval-5" fill="#353B46" cx="26" cy="26" r="26"></circle>
                            <path d="M39.3270034,35.5188653 C39.2875,35.5188653 39.2508183,35.521713 39.2112867,35.5274085 L32.2784707,36.4329945 C31.922912,36.4785871 31.6746332,36.0855685 31.8664786,35.778011 C31.9708804,35.6156889 32.0724605,35.4505192 32.1740406,35.2853494 C32.4420993,34.8467952 32.0837472,34.2630055 31.5871332,34.2630055 C31.5532731,34.2630055 31.5194131,34.2658817 31.4827314,34.2715772 L22.3969526,35.649862 L21.3106095,35.8150318 L18.3478555,36.2650055 C18.0120767,36.3162651 17.7863431,36.6038598 17.8145598,36.9484666 C17.8258465,37.1022169 17.8879233,37.2474808 17.9866817,37.3556955 C18.1023984,37.4838445 18.2632336,37.5550383 18.438149,37.5550383 C18.472009,37.5550383 18.5058691,37.5521621 18.5425508,37.5464951 L29.3721501,35.9033406 C29.7417889,35.8463855 29.9957393,36.2678532 29.7784424,36.5754107 C29.7079007,36.6722344 29.6373589,36.7719058 29.5668172,36.8687295 C29.3721501,37.1364184 29.4172686,37.5835444 29.6430023,37.814184 C29.7586907,37.9337897 29.9054176,37.9964403 30.0606095,37.9964403 C30.0775677,37.9964403 30.0972912,37.9964403 30.1142212,37.9935641 L30.1170429,37.9935641 L30.1198928,37.9935641 L39.4680869,36.7918401 L39.4709086,36.7918401 L39.4737585,36.7918401 C39.6345655,36.7662103 39.775649,36.6722344 39.8687923,36.5269704 C39.9703725,36.3674962 40.007026,36.1710011 39.9619074,35.9944688 C39.8885158,35.7068171 39.6402088,35.5188653 39.3270034,35.5188653 Z M15.9494639,36.1567338 C15.8591704,36.2792158 15.9974041,36.4386616 16.1300226,36.3674677 C17.6424661,35.5330756 19.1633183,35.1486287 19.9985609,35.0575005 C20.297658,35.0261752 20.5459368,34.8068981 20.6108352,34.5107317 C21.0115124,32.7166462 23.5115406,28.5845542 23.5115406,28.5845542 L20.1622178,26.0984644 C20.1622178,26.0984644 16.9990971,29.7236561 15.4189616,30.6463001 C15.1593962,30.7972596 15.0183126,31.0990931 15.0775395,31.3981073 C15.2383747,32.2268039 15.3568849,33.770287 15.0182844,35.4703965 C14.9900677,35.6184797 15.1819413,35.7039124 15.2693849,35.5814589 L19.3495485,29.9912881 C19.4962472,29.7919452 19.7756208,29.7578007 19.9646727,29.9200942 L19.9900395,29.9429047 C20.1593397,30.0881402 20.1904063,30.3415904 20.0577596,30.5209989 L15.9494639,36.1567338 Z M20.5685384,25.3352662 L24.109763,27.9665915 C24.4201467,28.1972596 24.8603273,28.134609 25.0917043,27.821356 C25.8140519,26.8502432 27.4421558,24.9451238 29.4765519,24.3812399 L34.3270034,17.600736 C34.5583804,17.2846353 34.4906603,16.8375378 34.1774549,16.6040219 L28.2039786,12.1672202 C27.8907731,11.9337043 27.4477709,12.0020504 27.2163939,12.3181512 L22.3715858,19.0958072 C22.4421275,21.22308 21.1215858,23.3588959 20.4161682,24.3442191 C20.1904345,24.6603768 20.2581546,25.1017788 20.5685384,25.3352662 Z" id="Shape" fill="#FFFFFF"></path>
                        </g>
                    </g>
                </g>
            </g>
        </g>
    </g>
</svg>
