<?xml version="1.0" encoding="UTF-8" standalone="no"?>
<svg viewBox="0 0 52 52" version="1.1" xmlns="http://www.w3.org/2000/svg" xmlns:xlink="http://www.w3.org/1999/xlink" xmlns:sketch="http://www.bohemiancoding.com/sketch/ns">
    <!-- Generator: Sketch 3.3.3 (12081) - http://www.bohemiancoding.com/sketch -->
    <title>Oval 5 + Shape</title>
    <desc>Created with Sketch.</desc>
    <defs></defs>
    <g id="Landing" stroke="none" stroke-width="1" fill="none" fill-rule="evenodd" sketch:type="MSPage">
        <g id="Landing-w-screenshot" sketch:type="MSArtboardGroup" transform="translate(-750.000000, -1480.000000)">
            <g id="features" sketch:type="MSLayerGroup" transform="translate(0.000000, 743.000000)">
                <g id="icons" transform="translate(312.000000, 324.000000)" sketch:type="MSShapeGroup">
                    <g id="8" transform="translate(438.000000, 408.000000)">
                        <g id="Oval-5-+-Shape" transform="translate(0.000000, 5.000000)">
                            <circle id="Oval-5" fill="#353B46" cx="26" cy="26" r="26"></circle>
                            <path d="M38.5558129,20.1524169 C38.2859703,20.029242 37.968116,20.0767508 37.7448668,20.2729026 L27.1964216,29.5551005 C26.0024324,30.6055672 24.2112911,30.5796772 23.0477163,29.4951477 L19.5035698,26.1910446 C19.2186513,25.9245524 18.7780888,25.9198068 18.486394,26.1791279 L13.4481064,30.6661528 C13.1631879,30.9199901 13.0000321,31.2842418 13.0000321,31.6665269 L13.0000321,34.2407555 C13.0000321,34.6600563 13.3381627,35 13.7558751,35 L38.2438944,35 C38.6616068,35 39,34.6600563 39,34.2407555 L39,20.8441683 C38.9998949,20.5461441 38.8263909,20.2754336 38.5558129,20.1524169 Z M14.3512938,25.0456131 L17.5240587,22.4268285 C18.0288645,22.8233504 18.6563786,23.0694893 19.3471903,23.0694893 C20.0203523,23.0694893 20.6342088,22.8359526 21.1331313,22.457464 L22.4583385,23.7744757 C22.3770758,24.0465044 22.3206069,24.3291845 22.3206069,24.6280523 C22.3206069,26.2760437 23.6516448,27.6121432 25.2937082,27.6121432 C26.9360342,27.6121432 28.2670722,26.2760437 28.2670722,24.6280523 C28.2670722,24.3283408 28.2096052,24.044448 28.1274495,23.7715228 L33.370391,19.4627219 C33.8523991,19.7984473 34.4351582,19.997921 35.0658766,19.997921 C36.7131404,19.997921 38.0536336,18.6524357 38.0536336,16.9989605 C38.0536336,15.3454325 36.7131404,14 35.0658766,14 C33.4186653,14 32.0784348,15.3454325 32.0784348,16.9989605 C32.0784348,17.4187359 32.1662636,17.8181579 32.3225381,18.1809332 L27.2218457,22.3726758 C26.7007559,21.9239523 26.0327418,21.6430123 25.2936557,21.6430123 C24.5672816,21.6430123 23.9119796,21.9142501 23.3951446,22.347946 L22.1310289,21.1013802 C22.2468558,20.7831609 22.3205543,20.4439554 22.3205543,20.0852929 C22.3205543,18.4364051 20.9894639,17.1003056 19.3471903,17.1003056 C17.7049168,17.1003056 16.3738264,18.4364051 16.3738264,20.0852929 C16.3738264,20.4358878 16.4449509,20.7669731 16.5548946,21.0792868 L13.300867,23.7655645 C12.9491313,24.0566284 12.8984932,24.5792253 13.187614,24.9326676 C13.4784683,25.2856881 13.9976671,25.3363079 14.3512938,25.0456131 Z M35.0658766,15.6576935 C35.8023888,15.6576935 36.4021149,16.2590675 36.4021149,16.9989078 C36.4021149,17.7382207 35.8024413,18.3395947 35.0658766,18.3395947 C34.3293644,18.3395947 33.7299009,17.7382207 33.7299009,16.9989078 C33.7299009,16.2590675 34.3293644,15.6576935 35.0658766,15.6576935 L35.0658766,15.6576935 Z M25.2937082,23.2888945 C26.0295375,23.2888945 26.626427,23.8881593 26.626427,24.6274723 C26.626427,25.3667853 26.0295375,25.9661028 25.2937082,25.9661028 C24.5562505,25.9661028 23.9594135,25.366838 23.9594135,24.6274723 C23.9593609,23.8881593 24.5562505,23.2888945 25.2937082,23.2888945 L25.2937082,23.2888945 Z M19.3472429,18.7461878 C20.0830722,18.7461878 20.6799617,19.3454526 20.6799617,20.0849238 C20.6799617,20.8242367 20.0830722,21.4235543 19.3472429,21.4235543 C18.6098377,21.4235543 18.0129482,20.8242895 18.0129482,20.0849238 C18.0128956,19.3454526 18.6097852,18.7461878 19.3472429,18.7461878 L19.3472429,18.7461878 Z" id="Shape" fill="#FFFFFF"></path>
                        </g>
                    </g>
                </g>
            </g>
        </g>
    </g>
</svg>
