<?xml version="1.0" encoding="UTF-8" standalone="no"?>
<svg width="397px" height="80px" viewBox="0 0 397 80" version="1.1" xmlns="http://www.w3.org/2000/svg" xmlns:xlink="http://www.w3.org/1999/xlink">
    <!-- Generator: Sketch 3.8.3 (29802) - http://www.bohemiancoding.com/sketch -->
    <title>woocommerce</title>
    <desc>Created with Sketch.</desc>
    <defs></defs>
    <g id="Page-1" stroke="none" stroke-width="1" fill="none" fill-rule="evenodd">
        <g id="woocommerce">
            <g id="Group">
                <path d="M12.9863014,0.109589041 L122.082192,0.109589041 C128.986301,0.109589041 134.575342,5.69863014 134.575342,12.6027397 L134.575342,54.2465753 C134.575342,61.1506849 128.986301,66.739726 122.082192,66.739726 L82.9589041,66.739726 L88.3287671,79.890411 L64.7123288,66.739726 L13.0410959,66.739726 C6.1369863,66.739726 0.547945205,61.1506849 0.547945205,54.2465753 L0.547945205,12.6027397 C0.493150685,5.75342466 6.08219178,0.109589041 12.9863014,0.109589041 L12.9863014,0.109589041 Z" id="Shape" fill="#9B5C8F"></path>
                <path d="M7.23287671,11.4520548 C8,10.4109589 9.15068493,9.8630137 10.6849315,9.75342466 C13.4794521,9.53424658 15.0684932,10.8493151 15.4520548,13.6986301 C17.1506849,25.1506849 19.0136986,34.8493151 20.9863014,42.7945205 L32.9863014,19.9452055 C34.0821918,17.8630137 35.4520548,16.7671233 37.0958904,16.6575342 C39.5068493,16.4931507 40.9863014,18.0273973 41.5890411,21.260274 C42.9589041,28.5479452 44.7123288,34.739726 46.7945205,40 C48.2191781,26.0821918 50.630137,16.0547945 54.0273973,9.8630137 C54.8493151,8.32876712 56.0547945,7.56164384 57.6438356,7.45205479 C58.9041096,7.34246575 60.0547945,7.7260274 61.0958904,8.54794521 C62.1369863,9.36986301 62.6849315,10.4109589 62.7945205,11.6712329 C62.8493151,12.6575342 62.6849315,13.4794521 62.2465753,14.3013699 C60.109589,18.2465753 58.3561644,24.8767123 56.9315068,34.0821918 C55.5616438,43.0136986 55.0684932,49.9726027 55.3972603,54.9589041 C55.5068493,56.3287671 55.2876712,57.5342466 54.739726,58.5753425 C54.0821918,59.7808219 53.0958904,60.4383562 51.8356164,60.5479452 C50.4109589,60.6575342 48.9315068,60 47.5068493,58.5205479 C42.4109589,53.3150685 38.3561644,45.5342466 35.3972603,35.1780822 C31.8356164,42.1917808 29.2054795,47.4520548 27.5068493,50.9589041 C24.2739726,57.1506849 21.5342466,60.3287671 19.2328767,60.4931507 C17.7534247,60.6027397 16.4931507,59.3424658 15.3972603,56.7123288 C12.6027397,49.5342466 9.5890411,35.6712329 6.35616438,15.1232877 C6.19178082,13.6986301 6.46575342,12.4383562 7.23287671,11.4520548 L7.23287671,11.4520548 Z" id="Shape" fill="#FFFFFF"></path>
                <path d="M125.041096,20.0547945 C123.068493,16.6027397 120.164384,14.5205479 116.273973,13.6986301 C115.232877,13.4794521 114.246575,13.369863 113.315068,13.369863 C108.054795,13.369863 103.780822,16.109589 100.438356,21.5890411 C97.5890411,26.2465753 96.1643836,31.3972603 96.1643836,37.0410959 C96.1643836,41.260274 97.0410959,44.8767123 98.7945205,47.890411 C100.767123,51.3424658 103.671233,53.4246575 107.561644,54.2465753 C108.60274,54.4657534 109.589041,54.5753425 110.520548,54.5753425 C115.835616,54.5753425 120.109589,51.8356164 123.39726,46.3561644 C126.246575,41.6438356 127.671233,36.4931507 127.671233,30.8493151 C127.671233,26.5753425 126.794521,23.0136986 125.041096,20.0547945 L125.041096,20.0547945 L125.041096,20.0547945 Z M118.136986,35.2328767 C117.369863,38.8493151 116,41.5342466 113.972603,43.3424658 C112.383562,44.7671233 110.90411,45.369863 109.534247,45.0958904 C108.219178,44.8219178 107.123288,43.6712329 106.30137,41.5342466 C105.643836,39.8356164 105.315068,38.1369863 105.315068,36.5479452 C105.315068,35.1780822 105.424658,33.8082192 105.69863,32.5479452 C106.191781,30.3013699 107.123288,28.109589 108.60274,26.0273973 C110.410959,23.3424658 112.328767,22.2465753 114.30137,22.630137 C115.616438,22.9041096 116.712329,24.0547945 117.534247,26.1917808 C118.191781,27.890411 118.520548,29.5890411 118.520548,31.1780822 C118.520548,32.6027397 118.356164,33.9726027 118.136986,35.2328767 L118.136986,35.2328767 L118.136986,35.2328767 Z" id="Shape" fill="#FFFFFF"></path>
                <path d="M90.6849315,20.0547945 C88.7123288,16.6027397 85.7534247,14.5205479 81.9178082,13.6986301 C80.8767123,13.4794521 79.890411,13.369863 78.9589041,13.369863 C73.6986301,13.369863 69.4246575,16.109589 66.0821918,21.5890411 C63.2328767,26.2465753 61.8082192,31.3972603 61.8082192,37.0410959 C61.8082192,41.260274 62.6849315,44.8767123 64.4383562,47.890411 C66.4109589,51.3424658 69.3150685,53.4246575 73.2054795,54.2465753 C74.2465753,54.4657534 75.2328767,54.5753425 76.1643836,54.5753425 C81.4794521,54.5753425 85.7534247,51.8356164 89.0410959,46.3561644 C91.890411,41.6438356 93.3150685,36.4931507 93.3150685,30.8493151 C93.3150685,26.5753425 92.4383562,23.0136986 90.6849315,20.0547945 L90.6849315,20.0547945 L90.6849315,20.0547945 Z M83.7808219,35.2328767 C83.0136986,38.8493151 81.6438356,41.5342466 79.6164384,43.3424658 C78.0273973,44.7671233 76.5479452,45.369863 75.1780822,45.0958904 C73.8630137,44.8219178 72.7671233,43.6712329 71.9452055,41.5342466 C71.2876712,39.8356164 70.9589041,38.1369863 70.9589041,36.5479452 C70.9589041,35.1780822 71.0684932,33.8082192 71.3424658,32.5479452 C71.8356164,30.3013699 72.7671233,28.109589 74.2465753,26.0273973 C76.0547945,23.3424658 77.9726027,22.2465753 79.9452055,22.630137 C81.260274,22.9041096 82.3561644,24.0547945 83.1780822,26.1917808 C83.8356164,27.890411 84.1643836,29.5890411 84.1643836,31.1780822 C84.1643836,32.6027397 84.0547945,33.9726027 83.7808219,35.2328767 L83.7808219,35.2328767 L83.7808219,35.2328767 Z" id="Shape" fill="#FFFFFF"></path>
                <path d="M148.438356,19.5616438 C144.767123,23.1780822 142.958904,27.7808219 142.958904,33.369863 C142.958904,39.3424658 144.767123,44.2191781 148.383562,47.890411 C152,51.5616438 156.712329,53.4246575 162.575342,53.4246575 C164.273973,53.4246575 166.191781,53.1506849 168.273973,52.5479452 L168.273973,43.6712329 C166.356164,44.2191781 164.712329,44.4931507 163.287671,44.4931507 C160.383562,44.4931507 158.082192,43.5068493 156.328767,41.5890411 C154.575342,39.6164384 153.69863,36.9863014 153.69863,33.6438356 C153.69863,30.5205479 154.575342,27.9452055 156.273973,25.9726027 C158.027397,23.9452055 160.164384,22.9589041 162.794521,22.9589041 C164.493151,22.9589041 166.30137,23.2328767 168.273973,23.7808219 L168.273973,14.9041096 C166.465753,14.4109589 164.438356,14.1917808 162.30137,14.1917808 C156.712329,14.1369863 152.109589,15.9452055 148.438356,19.5616438 L148.438356,19.5616438 Z M186.465753,14.1369863 C181.424658,14.1369863 177.479452,15.8356164 174.630137,19.1780822 C171.780822,22.5205479 170.410959,27.2328767 170.410959,33.260274 C170.410959,39.7808219 171.835616,44.7671233 174.630137,48.2191781 C177.424658,51.6712329 181.534247,53.4246575 186.90411,53.4246575 C192.109589,53.4246575 196.109589,51.6712329 198.90411,48.2191781 C201.69863,44.7671233 203.123288,39.890411 203.123288,33.6438356 C203.123288,27.3972603 201.69863,22.5753425 198.849315,19.1780822 C195.945205,15.8356164 191.835616,14.1369863 186.465753,14.1369863 L186.465753,14.1369863 Z M190.794521,42.630137 C189.808219,44.1643836 188.328767,44.9315068 186.465753,44.9315068 C184.712329,44.9315068 183.39726,44.1643836 182.465753,42.630137 C181.534247,41.0958904 181.09589,38.0273973 181.09589,33.369863 C181.09589,26.1917808 182.90411,22.630137 186.575342,22.630137 C190.410959,22.630137 192.383562,26.2465753 192.383562,33.5342466 C192.328767,38.0273973 191.780822,41.0958904 190.794521,42.630137 L190.794521,42.630137 Z M230.191781,15.1780822 L228.219178,23.5616438 C227.726027,25.6986301 227.232877,27.890411 226.794521,30.1369863 L225.69863,35.9452055 C224.657534,30.1369863 223.232877,23.2328767 221.424658,15.1780822 L208.712329,15.1780822 L203.945205,52.4931507 L213.479452,52.4931507 L216.054795,26.7945205 L222.575342,52.4931507 L229.369863,52.4931507 L235.616438,26.8493151 L238.30137,52.4931507 L248.273973,52.4931507 L243.232877,15.1780822 L230.191781,15.1780822 L230.191781,15.1780822 Z M275.835616,15.1780822 L273.863014,23.5616438 C273.369863,25.6986301 272.876712,27.890411 272.438356,30.1369863 L271.342466,35.9452055 C270.30137,30.1369863 268.876712,23.2328767 267.068493,15.1780822 L254.356164,15.1780822 L249.589041,52.4931507 L259.123288,52.4931507 L261.69863,26.7945205 L268.219178,52.4931507 L275.013699,52.4931507 L281.205479,26.8493151 L283.890411,52.4931507 L293.863014,52.4931507 L288.821918,15.1780822 L275.835616,15.1780822 L275.835616,15.1780822 Z M306.849315,37.7534247 L315.780822,37.7534247 L315.780822,30.0273973 L306.849315,30.0273973 L306.849315,23.1780822 L317.150685,23.1780822 L317.150685,15.2328767 L296.767123,15.2328767 L296.767123,52.5479452 L317.205479,52.5479452 L317.205479,44.6027397 L306.849315,44.6027397 L306.849315,37.7534247 L306.849315,37.7534247 Z M345.589041,31.8356164 C346.630137,30.1369863 347.178082,28.3835616 347.178082,26.5753425 C347.178082,23.0684932 345.808219,20.2739726 343.068493,18.2465753 C340.328767,16.2191781 336.547945,15.1780822 331.835616,15.1780822 L320.109589,15.1780822 L320.109589,52.4931507 L330.191781,52.4931507 L330.191781,35.5068493 L330.356164,35.5068493 L338.520548,52.4931507 L349.150685,52.4931507 L341.09589,35.6712329 C343.013699,34.7945205 344.547945,33.5342466 345.589041,31.8356164 L345.589041,31.8356164 Z M330.136986,31.2328767 L330.136986,22.3561644 C332.547945,22.4109589 334.246575,22.7945205 335.287671,23.5616438 C336.328767,24.3287671 336.821918,25.5342466 336.821918,27.2876712 C336.821918,29.8630137 334.575342,31.1780822 330.136986,31.2328767 L330.136986,31.2328767 Z M353.09589,19.5616438 C349.424658,23.1780822 347.616438,27.7808219 347.616438,33.369863 C347.616438,39.3424658 349.424658,44.2191781 353.041096,47.890411 C356.657534,51.5616438 361.369863,53.4246575 367.232877,53.4246575 C368.931507,53.4246575 370.849315,53.1506849 372.931507,52.5479452 L372.931507,43.6712329 C371.013699,44.2191781 369.369863,44.4931507 367.945205,44.4931507 C365.041096,44.4931507 362.739726,43.5068493 360.986301,41.5890411 C359.232877,39.6164384 358.356164,36.9863014 358.356164,33.6438356 C358.356164,30.5205479 359.232877,27.9452055 360.931507,25.9726027 C362.684932,23.9452055 364.821918,22.9589041 367.452055,22.9589041 C369.150685,22.9589041 370.958904,23.2328767 372.931507,23.7808219 L372.931507,14.9041096 C371.123288,14.4109589 369.09589,14.1917808 366.958904,14.1917808 C361.424658,14.1369863 356.767123,15.9452055 353.09589,19.5616438 L353.09589,19.5616438 Z M385.808219,44.4931507 L385.808219,37.6986301 L394.739726,37.6986301 L394.739726,29.9726027 L385.808219,29.9726027 L385.808219,23.1232877 L396.164384,23.1232877 L396.164384,15.1780822 L375.780822,15.1780822 L375.780822,52.4931507 L396.219178,52.4931507 L396.219178,44.5479452 L385.808219,44.5479452 L385.808219,44.4931507 Z" id="Shape" fill="#000000"></path>
            </g>
        </g>
    </g>
</svg>